<svg xmlns="http://www.w3.org/2000/svg" width="512" height="512" viewBox="0 0 512 512">
  <defs>
    <linearGradient id="grad" x1="0%" y1="0%" x2="100%" y2="100%">
      <stop offset="0%" style="stop-color:#6366f1;stop-opacity:1" />
      <stop offset="100%" style="stop-color:#8b5cf6;stop-opacity:1" />
    </linearGradient>
  </defs>
  <rect width="512" height="512" rx="96" fill="url(#grad)"/>

  <!-- Cifrão estilizado -->
  <g fill="white">
    <path d="M256 100 L256 140 M256 372 L256 412" stroke="white" stroke-width="32" stroke-linecap="round"/>
    <path d="M196 160 C196 138 216 120 240 120 L272 120 C296 120 316 138 316 160 C316 182 296 200 272 200 L240 200 C216 200 196 218 196 240 C196 262 216 280 240 280 L272 280 C296 280 316 298 316 320 C316 342 296 360 272 360 L240 360 C216 360 196 342 196 320" stroke="white" stroke-width="32" fill="none" stroke-linecap="round"/>
  </g>

  <!-- Texto MF -->
  <text x="256" y="470" text-anchor="middle" font-size="80" font-weight="700" fill="white" font-family="Arial, sans-serif">MF</text>
</svg>
